<?xml version="1.0" encoding="utf-8"?>
<!-- Generator: Adobe Illustrator 25.4.1, SVG Export Plug-In . SVG Version: 6.00 Build 0)  -->
<svg version="1.1" id="Capa_1" xmlns="http://www.w3.org/2000/svg" xmlns:xlink="http://www.w3.org/1999/xlink" x="0px" y="0px"
	 viewBox="0 0 144.02 15.15" style="enable-background:new 0 0 144.02 15.15;" xml:space="preserve">
<style type="text/css">
	.st0{fill:#151516;}
	.st1{fill:#FFFFFF;}
	.st2{filter:url(#Adobe_OpacityMaskFilter);}
	.st3{mask:url(#SVGID_1_);}
	.st4{opacity:0.6;}
	.st5{fill:none;stroke:#471E96;stroke-miterlimit:10;}
	.st6{opacity:0.6;fill:#FFFFFF;}
	.st7{opacity:0.5;}
	.st8{clip-path:url(#SVGID_00000181068254202951695200000004209698947754232704_);}
	.st9{filter:url(#Adobe_OpacityMaskFilter_00000176764567156216422460000016914285365985656991_);}
	.st10{clip-path:url(#SVGID_00000111185141338474433670000015163272537171984572_);}
	.st11{filter:url(#Adobe_OpacityMaskFilter_00000090283824261773691300000015169857432230946980_);}
	.st12{clip-path:url(#SVGID_00000018944344188882829330000017981062346403654302_);}
	.st13{filter:url(#Adobe_OpacityMaskFilter_00000000201803159409183610000003831098891600372925_);}
	.st14{fill:#8153F2;}
	.st15{opacity:0.6;fill:#471E96;}
	.st16{filter:url(#Adobe_OpacityMaskFilter_00000175283741513227896660000012605293327412022456_);}
	.st17{mask:url(#SVGID_00000171682122302875094240000006447852038645701773_);}
	.st18{filter:url(#Adobe_OpacityMaskFilter_00000093869103181428546360000008315484451353667222_);}
	.st19{mask:url(#SVGID_00000121961611312163514330000003990634776115732627_);}
	.st20{filter:url(#Adobe_OpacityMaskFilter_00000176727087482016885430000009269013433295936934_);}
	.st21{fill:url(#SVGID_00000162311461734986684480000001533595122520686509_);}
	.st22{mask:url(#male_x5F_suit_x5F_v01_x5F_1.1009.tif_00000050660167731084361040000001133543947897638301_);}
	.st23{filter:url(#Adobe_OpacityMaskFilter_00000008138660963564922290000008024698055674133397_);}
	.st24{fill:url(#SVGID_00000074426445737448070530000007037852481169099927_);}
	.st25{mask:url(#male_x5F_suit_x5F_v01_x5F_1.1009.tif_00000029724737889351358270000012973876185645217465_);}
	.st26{filter:url(#Adobe_OpacityMaskFilter_00000123409068321339121880000008681732131769372860_);}
	.st27{fill:url(#SVGID_00000077303149912878562360000001919847947035398275_);}
	.st28{mask:url(#male_x5F_suit_x5F_v01_x5F_1.1002.tif_00000080176747888517903740000000037745439126524824_);}
	.st29{filter:url(#Adobe_OpacityMaskFilter_00000093178602935862844900000013220226912939194515_);}
	.st30{fill:url(#SVGID_00000101808565568087626130000000886946099518354306_);}
	.st31{mask:url(#male_x5F_suit_x5F_v01_x5F_1.1002.tif_00000013173984193568427550000002324318361549877402_);}
	.st32{filter:url(#Adobe_OpacityMaskFilter_00000118383141895768549410000016523829380767068341_);}
	.st33{fill:url(#SVGID_00000046320333825248484740000000483175945870059952_);}
	.st34{mask:url(#SVGID_00000087392218010127450810000010558032772805229471_);}
	.st35{filter:url(#Adobe_OpacityMaskFilter_00000080198033790077482490000014079148687087998091_);}
	.st36{fill:url(#SVGID_00000011032479888649294320000010777102719365104539_);}
	.st37{mask:url(#SVGID_00000083779251212793640380000006935082285875859877_);}
	.st38{enable-background:new    ;}
	.st39{fill:#7232ED;}
	.st40{opacity:0.2;}
	.st41{filter:url(#Adobe_OpacityMaskFilter_00000168827970296645449050000008114572128997406852_);}
	.st42{opacity:0.4;}
	.st43{filter:url(#Adobe_OpacityMaskFilter_00000176023902448432996570000014309188884832867261_);}
	.st44{mask:url(#SVGID_00000175299421209237073470000012247909621550086025_);}
	.st45{filter:url(#Adobe_OpacityMaskFilter_00000109748161031177552950000018121952555993476497_);}
	.st46{fill:#F49308;}
	.st47{filter:url(#Adobe_OpacityMaskFilter_00000047755553734958109450000010957392396831259280_);}
	.st48{filter:url(#Adobe_OpacityMaskFilter_00000034798152397625211570000000377497143407795370_);}
	.st49{mask:url(#SVGID_00000096775067773460387700000013924139316170141349_);}
	.st50{filter:url(#Adobe_OpacityMaskFilter_00000036246161001902624680000017572702873719561633_);}
	.st51{mask:url(#SVGID_00000034064559465155718050000016987411098045850252_);}
	.st52{fill:#34EABF;}
	.st53{opacity:0.8;}
	.st54{fill:#D6512D;}
	.st55{filter:url(#Adobe_OpacityMaskFilter_00000162344634061208167770000000599660139906612123_);}
	.st56{mask:url(#SVGID_00000165211178312520608230000007907131185700544690_);}
	.st57{fill:#3FA4E8;}
	.st58{filter:url(#Adobe_OpacityMaskFilter_00000036244617856082781730000011726016812247551915_);}
	.st59{fill:url(#SVGID_00000003783178421138522670000014054892941388120496_);}
	.st60{filter:url(#Adobe_OpacityMaskFilter_00000074419627710568055010000003033117213484972707_);}
	.st61{mask:url(#SVGID_00000061433541875073816240000002657902488518952344_);}
	.st62{fill:#471E96;}
	.st63{filter:url(#Adobe_OpacityMaskFilter_00000134243668794418461890000013321247155397694380_);}
	.st64{fill:url(#SVGID_00000147904691186609455760000008222577005354252427_);}
	.st65{filter:url(#Adobe_OpacityMaskFilter_00000093160698850014704760000001982135056060413863_);}
	.st66{mask:url(#SVGID_00000145753507054394536880000008554604720673276310_);}
	.st67{filter:url(#Adobe_OpacityMaskFilter_00000120524581493885455850000009584553477362000819_);}
	.st68{fill:url(#SVGID_00000063627271806633443540000011126843448646962865_);}
	.st69{mask:url(#male_x5F_suit_x5F_v01_x5F_1.1034.tif_00000000191243437332321800000014062569934142759576_);}
	.st70{filter:url(#Adobe_OpacityMaskFilter_00000106129951688548375310000011051777359950222724_);}
	.st71{fill:url(#SVGID_00000028310777173748066050000006933506913696265150_);}
	.st72{mask:url(#male_x5F_suit_x5F_v01_x5F_1.1081.tif_00000071557333163063757540000011114695336102230949_);}
	.st73{filter:url(#Adobe_OpacityMaskFilter_00000132071526952301542340000016434970401705973646_);}
	.st74{fill:url(#SVGID_00000009575649331766754840000011106358485537181610_);}
	.st75{mask:url(#male_x5F_suit_x5F_v01_x5F_1.1034.tif_00000036247791086454343850000003872462072155528623_);}
	.st76{filter:url(#Adobe_OpacityMaskFilter_00000018212741166674820080000008754855459028278144_);}
	.st77{fill:url(#SVGID_00000132784348426613604320000002044673446151388316_);}
	.st78{mask:url(#male_x5F_suit_x5F_v01_x5F_1.1081.tif_00000083064313845359101180000010165630102991327155_);}
	.st79{filter:url(#Adobe_OpacityMaskFilter_00000085245752345566075460000016698271333462330538_);}
	.st80{fill:url(#SVGID_00000038373616002497792270000016320688388632134062_);}
	.st81{mask:url(#male_x5F_suit_x5F_v01_x5F_1.1034.tif_00000173157734329699528680000001976591541941176733_);}
	.st82{filter:url(#Adobe_OpacityMaskFilter_00000154427213858412607060000008703991747474205579_);}
	.st83{fill:url(#SVGID_00000042001693197424925640000004295693031265748878_);}
	.st84{mask:url(#male_x5F_suit_x5F_v01_x5F_1.1081.tif_00000183955088257660162480000006197910333652557733_);}
	.st85{fill-rule:evenodd;clip-rule:evenodd;fill:#FFFFFF;}
	.st86{opacity:0.2;fill:none;stroke:#FFFFFF;stroke-miterlimit:10;}
	.st87{opacity:0.9;}
	.st88{fill:none;stroke:#FFFFFF;stroke-miterlimit:10;}
</style>
<g>
	<path class="st1" d="M18.26,0.31v4.87h-4.34V3.06c-1.09-0.08-2.18-0.11-3.26-0.07C9.57,3.02,8.59,3.18,7.71,3.44
		S6.09,4.12,5.5,4.67C4.9,5.22,4.56,5.97,4.46,6.9C4.4,7.31,4.41,7.76,4.49,8.25C4.57,8.73,4.7,9.16,4.9,9.53
		c0.34,0.66,0.8,1.17,1.4,1.55c0.59,0.38,1.28,0.66,2.07,0.86c0.78,0.2,1.65,0.32,2.59,0.37c0.94,0.05,1.93,0.06,2.97,0.03v-1.97
		h4.34v4.68c-1.05-0.01-2.1-0.01-3.16,0c-1.06,0.01-2.09,0.01-3.11-0.01c-1.01-0.02-2-0.07-2.96-0.15
		c-0.96-0.08-1.87-0.22-2.74-0.43c-0.81-0.2-1.61-0.5-2.4-0.91c-0.79-0.41-1.49-0.93-2.09-1.56c-0.6-0.63-1.07-1.38-1.42-2.24
		C0.06,8.87-0.07,7.88,0.03,6.78c0.1-1.06,0.45-2,1.06-2.82C1.7,3.14,2.42,2.48,3.24,1.99c0.89-0.56,1.92-0.96,3.06-1.2
		c1.15-0.24,2.37-0.39,3.66-0.45c1.29-0.06,2.64-0.08,4.05-0.05C15.42,0.32,16.84,0.33,18.26,0.31z"/>
	<path class="st1" d="M33.28,15.02c0.04-0.1,0.14-0.27,0.29-0.52c0.15-0.25,0.33-0.53,0.51-0.83c0.19-0.3,0.38-0.6,0.58-0.9
		c0.2-0.3,0.36-0.56,0.48-0.77h4.58c-0.67-1.27-1.42-2.56-2.24-3.87c-0.83-1.31-1.62-2.62-2.37-3.93c-1.16,1.78-2.28,3.58-3.35,5.4
		c-1.07,1.83-2.17,3.63-3.3,5.42h-4.47c1.47-2.5,2.94-4.98,4.41-7.43c1.47-2.45,2.97-4.9,4.49-7.36h4.28
		c0.07,0.07,0.28,0.38,0.62,0.92c0.34,0.55,0.77,1.24,1.28,2.09c0.51,0.85,1.08,1.79,1.7,2.83c0.62,1.04,1.26,2.1,1.9,3.17
		c0.64,1.07,1.27,2.11,1.87,3.12c0.6,1.01,1.13,1.89,1.59,2.64L33.28,15.02z"/>
	<path class="st1" d="M57.06,0.36h4.22c-1.2,2.46-2.4,4.91-3.58,7.35c-1.18,2.44-2.37,4.89-3.58,7.33h-4.24
		c1.19-2.48,2.37-4.93,3.56-7.37C54.62,5.23,55.83,2.79,57.06,0.36z M71.51,0.36c0.64,2.46,1.29,4.91,1.93,7.33
		c0.64,2.43,1.28,4.88,1.91,7.35h-4.22c-0.41-1.55-0.81-3.09-1.23-4.62C69.5,8.9,69.09,7.36,68.7,5.79
		c-0.87,1.52-1.7,3.07-2.49,4.63c-0.79,1.56-1.61,3.1-2.44,4.63h-3.84c1.23-2.46,2.45-4.92,3.65-7.36c1.2-2.45,2.44-4.89,3.71-7.32
		H71.51z"/>
	<path class="st1" d="M82.65,0.34h4.28v14.71h-4.36c0-2.43,0-4.85,0.01-7.26c0.01-2.41,0-4.83-0.01-7.26c0-0.04,0-0.08,0.01-0.13
		C82.59,0.36,82.61,0.34,82.65,0.34z"/>
	<path class="st1" d="M95.93,0h4.28v8.64c0,0.18,0,0.39,0,0.62s0.01,0.46,0.03,0.69c0.02,0.23,0.05,0.45,0.09,0.67
		c0.04,0.22,0.1,0.41,0.19,0.58c0.13,0.25,0.31,0.45,0.56,0.61c0.24,0.15,0.51,0.28,0.81,0.38c0.29,0.1,0.59,0.16,0.89,0.2
		c0.3,0.03,0.58,0.05,0.83,0.05c0.25,0,0.54-0.02,0.87-0.06c0.33-0.04,0.65-0.12,0.97-0.22c0.31-0.1,0.6-0.24,0.86-0.42
		c0.26-0.17,0.44-0.4,0.56-0.66c0.08-0.17,0.14-0.36,0.17-0.59c0.03-0.22,0.04-0.45,0.04-0.69s0-0.47-0.01-0.7
		c-0.01-0.23-0.01-0.44-0.01-0.64V0h4.43c-0.01,0.28-0.02,0.55-0.02,0.81c0,0.26,0,0.53,0,0.81c0,0.9,0.01,1.78,0.02,2.66
		c0.01,0.88,0.02,1.77,0.02,2.66c0,0.29,0,0.66,0,1.11c0,0.45-0.01,0.9-0.02,1.36c-0.01,0.46-0.05,0.91-0.09,1.33
		c-0.05,0.43-0.12,0.77-0.22,1.02c-0.22,0.56-0.6,1.06-1.12,1.49c-0.52,0.43-1.05,0.77-1.58,1.01c-0.7,0.34-1.45,0.57-2.26,0.69
		c-0.8,0.13-1.58,0.19-2.34,0.19c-0.55,0-1.17-0.04-1.89-0.13c-0.71-0.08-1.42-0.23-2.11-0.43c-0.69-0.2-1.34-0.48-1.94-0.82
		c-0.6-0.34-1.06-0.77-1.36-1.29c-0.17-0.27-0.3-0.67-0.4-1.22c-0.1-0.55-0.18-1.13-0.23-1.74c-0.06-0.62-0.09-1.21-0.12-1.78
		c-0.02-0.57-0.03-1.03-0.03-1.36c0-1.05,0.01-2.09,0.04-3.14c0.03-1.04,0.04-2.09,0.04-3.14c0-0.01,0-0.03,0.01-0.06
		C95.89,0.01,95.9,0,95.93,0z"/>
	<path class="st1" d="M125.72,0.36h4.22c-1.2,2.46-2.4,4.91-3.58,7.35c-1.18,2.44-2.37,4.89-3.58,7.33h-4.24
		c1.19-2.48,2.37-4.93,3.56-7.37C123.29,5.23,124.49,2.79,125.72,0.36z M140.18,0.36c0.64,2.46,1.29,4.91,1.93,7.33
		c0.64,2.43,1.28,4.88,1.91,7.35h-4.22c-0.41-1.55-0.81-3.09-1.23-4.62c-0.41-1.52-0.81-3.07-1.21-4.64
		c-0.87,1.52-1.7,3.07-2.49,4.63c-0.79,1.56-1.61,3.1-2.44,4.63h-3.84c1.23-2.46,2.45-4.92,3.65-7.36c1.2-2.45,2.44-4.89,3.71-7.32
		H140.18z"/>
</g>
</svg>
